<?xml version="1.0" encoding="UTF-8"?>
<!DOCTYPE svg PUBLIC "-//W3C//DTD SVG 1.1//EN" "http://www.w3.org/Graphics/SVG/1.1/DTD/svg11.dtd">
<!-- Creator: CorelDRAW X6 -->
<svg xmlns="http://www.w3.org/2000/svg" xml:space="preserve" width="3.52778in" height="1.23611in" version="1.1" style="shape-rendering:geometricPrecision; text-rendering:geometricPrecision; image-rendering:optimizeQuality; fill-rule:evenodd; clip-rule:evenodd"
viewBox="0 0 3528 1236"
 xmlns:xlink="http://www.w3.org/1999/xlink">
 <defs>
  <style type="text/css">
   <![CDATA[
    .fil3 {fill:#1DB7D0;fill-rule:nonzero}
    .fil4 {fill:#36A34F;fill-rule:nonzero}
    .fil5 {fill:#3C86C6;fill-rule:nonzero}
    .fil2 {fill:#BB2C44;fill-rule:nonzero}
    .fil6 {fill:#C9D865;fill-rule:nonzero}
    .fil7 {fill:#DF2F83;fill-rule:nonzero}
    .fil1 {fill:#E9503C;fill-rule:nonzero}
    .fil8 {fill:#FDCB36;fill-rule:nonzero}
    .fil0 {fill:#FEFEFE;fill-rule:nonzero}
    .fil9 {fill:#FDF4F5;fill-rule:nonzero;fill-opacity:0.250980}
   ]]>
  </style>
 </defs>
 <g id="Capa_x0020_1">
  <metadata id="CorelCorpID_0Corel-Layer"/>
  <g id="_301654632">
   <path class="fil0" d="M379 454l-70 0 8 -76 0 -2c0,-12 -5,-39 -53,-39l-4 0c-44,0 -54,23 -56,36l-9 80 -42 0c-15,0 -41,8 -41,60 0,40 26,43 34,43l38 0 -30 298 0 2c0,77 43,119 121,119 57,0 75,-24 80,-44 3,-14 5,-26 5,-35 0,-24 -16,-30 -25,-30 -3,0 -4,0 -18,4 -6,2 -14,3 -24,3 -13,0 -26,-3 -26,-34 0,-8 5,-63 29,-282l54 0c11,0 27,-4 43,-22 11,-13 17,-29 17,-45 0,-22 -13,-36 -33,-36z"/>
   <path class="fil0" d="M742 448c-91,0 -160,31 -205,91 -44,59 -66,136 -66,228 0,136 78,208 226,208 30,0 63,-5 99,-16 41,-12 65,-32 70,-58 3,-17 5,-31 5,-42 0,-31 -21,-33 -25,-33 -6,0 -12,2 -32,15 -34,20 -71,30 -111,30 -39,0 -68,-9 -87,-25 -17,-15 -26,-40 -28,-76 18,2 38,3 60,3 69,0 129,-13 178,-38 28,-14 49,-34 65,-59 15,-25 23,-55 23,-88 0,-35 -15,-67 -43,-97 -29,-30 -72,-45 -129,-45zm-8 103l0 0c21,0 37,5 48,14 11,9 16,19 16,31 0,13 -4,24 -12,34 -9,11 -19,19 -30,24 -28,12 -67,19 -116,19l-43 0c17,-81 62,-121 138,-121z"/>
   <path class="fil0" d="M1335 466c-26,-11 -60,-17 -100,-17 -60,0 -111,16 -152,46 -40,31 -69,69 -85,116 -16,45 -24,100 -24,163 0,66 19,117 55,152 36,34 91,51 161,51 27,0 56,-3 86,-10 37,-8 58,-24 62,-47 3,-17 5,-31 5,-42 0,-31 -18,-33 -24,-33 -4,0 -7,1 -25,8 -30,14 -63,20 -98,20 -38,0 -65,-9 -82,-26 -16,-17 -25,-47 -25,-88 0,-74 13,-128 38,-161 24,-32 54,-47 91,-47 39,0 68,6 86,18 11,7 15,9 21,9 21,0 34,-19 38,-26 11,-15 16,-28 16,-38 0,-29 -35,-44 -46,-49z"/>
   <g>
    <g>
     <path class="fil1" d="M1637 475c-13,7 -25,16 -37,27 -106,69 -133,186 -133,186l-17 162c33,-17 73,-30 117,-30l14 -136c17,-48 38,-83 62,-102 11,-9 22,-16 32,-21 8,-50 -18,-74 -38,-86z"/>
     <path class="fil2" d="M1440 933l0 2c0,11 5,38 53,38l4 0c45,0 55,-23 57,-37l12 -116c-44,0 -84,13 -117,30l-9 83z"/>
     <path class="fil3" d="M1871 633l4 -45 0 -2c0,-90 -48,-138 -139,-138 -36,0 -69,9 -99,26 20,11 45,36 38,86 12,-5 23,-8 34,-8 36,0 51,15 51,52 0,2 -1,9 -3,33 24,8 62,14 114,-4z"/>
     <path class="fil4" d="M1888 869l-26 5c-3,0 -6,-1 -9,-2 -13,16 -29,47 -33,104 5,1 10,1 16,1 13,0 27,-3 41,-9 18,-7 29,-21 32,-39 2,-14 4,-23 4,-31 0,-23 -15,-29 -24,-29z"/>
     <path class="fil5" d="M1871 633c-52,18 -90,12 -114,4 -2,19 -5,48 -10,92 -10,89 -12,120 -13,131 29,-20 71,-42 119,-50l18 -177z"/>
     <path class="fil6" d="M1851 871c-1,-1 -2,-6 -2,-16l4 -44c-48,8 -90,30 -119,50 0,4 0,6 0,7 0,64 30,101 85,107 4,-57 20,-88 33,-104 0,0 -1,0 -1,0z"/>
     <path class="fil7" d="M1610 405l13 -121 0 -2c0,-12 -5,-39 -53,-39l-4 0c-45,0 -55,23 -57,37l-6 60c21,24 56,51 107,65z"/>
     <path class="fil8" d="M1599 502l10 -96c-51,-13 -86,-41 -107,-65l-37 347c0,0 27,-117 133,-186z"/>
    </g>
    <path class="fil9" d="M1477 935l0 -2 69 -652c2,-12 9,-31 40,-35 -5,-1 -10,-1 -16,-1l-4 0c-45,0 -55,23 -57,37l-69 652 0 2c0,11 5,38 53,38l4 0c6,0 12,0 17,-1 -33,-5 -37,-27 -37,-36z"/>
    <path class="fil9" d="M1771 868c0,-4 0,-18 13,-138 11,-101 13,-122 13,-125 0,-37 -15,-52 -51,-52 -6,0 -11,1 -17,2 22,5 31,21 31,50 0,3 -2,24 -13,125 -13,121 -13,134 -13,138 0,70 36,108 101,108 5,0 11,-1 16,-2 -52,-8 -80,-45 -80,-107z"/>
   </g>
   <g>
    <path class="fil0" d="M2180 641l7 -1c1,0 2,1 2,3 0,2 0,5 -1,8 -1,3 -3,6 -6,7 -3,1 -7,2 -10,2 -16,0 -24,-9 -24,-26l0 -3c-13,19 -28,29 -47,29 -23,0 -35,-11 -35,-34l10 -100c1,-4 4,-6 11,-6l1 0c7,0 10,2 10,6 -6,61 -10,92 -10,95 0,14 7,20 20,20 7,0 15,-3 23,-10 8,-7 14,-18 19,-35l7 -70c1,-4 4,-6 11,-6l1 0c7,0 10,2 10,6 -7,64 -10,99 -10,103 0,4 0,7 1,8 1,2 1,3 2,3 2,1 4,1 6,1z"/>
    <path class="fil0" d="M2322 553l-8 77c0,5 1,8 3,10 2,1 4,1 6,1l7 -1c1,0 2,1 2,3 0,2 0,5 -1,8 -1,3 -3,6 -6,7 -3,1 -7,2 -10,2 -16,0 -24,-9 -24,-26 0,-3 1,-16 4,-39 2,-23 4,-35 4,-37 0,-14 -7,-20 -20,-20 -7,0 -15,3 -23,10 -8,7 -14,17 -19,33l-8 73c-1,4 -4,6 -11,6l-1 0c-7,0 -10,-2 -10,-6 8,-69 12,-107 12,-116l0 -9c0,-4 5,-6 15,-6 5,0 7,7 7,20 0,1 0,2 0,3 13,-18 29,-27 47,-27 23,0 35,11 35,34z"/>
    <path class="fil0" d="M2393 641l7 -1c1,0 2,1 2,3 0,2 0,5 -1,8 -1,3 -3,6 -6,7 -3,1 -7,2 -10,2 -16,0 -23,-8 -23,-25 0,-6 2,-26 5,-59 4,-33 5,-50 6,-50 1,-4 4,-6 11,-6l1 0c7,0 10,2 10,6 -7,64 -11,99 -11,103 0,4 1,7 2,9 1,2 2,3 3,3 1,0 3,0 5,0zm-5 -181l0 0 3 0c7,0 10,2 10,6l-2 16c0,4 -3,6 -10,6l-3 0c-7,0 -11,-2 -11,-6l2 -16c1,-4 4,-6 11,-6z"/>
    <path class="fil0" d="M2474 659l-9 0c-6,0 -10,-1 -10,-4 -20,-86 -30,-129 -30,-130 0,-3 4,-5 12,-5l2 0c6,0 10,1 10,4l24 107 47 -107c1,-3 5,-4 12,-4 7,0 10,1 10,4 0,1 0,3 -1,4l-56 127c-1,3 -5,4 -11,4z"/>
    <path class="fil0" d="M2651 632c4,-2 6,-3 6,-3 1,0 2,1 2,4 0,3 0,6 -1,11 -1,5 -7,10 -16,13 -10,3 -19,4 -27,4 -40,0 -60,-18 -60,-55 0,-26 6,-46 18,-62 12,-16 30,-24 55,-24 15,0 26,4 33,11 7,7 11,16 11,24 0,9 -2,16 -6,23 -4,7 -9,12 -16,15 -14,7 -30,10 -49,10 -9,0 -16,-1 -23,-2l0 3c0,14 3,24 10,29 7,6 16,9 29,9 12,0 24,-3 35,-10zm-26 -94l0 0c-26,0 -42,15 -46,45l19 0c15,0 27,-2 36,-6 4,-2 7,-4 11,-8 3,-4 5,-8 5,-13 0,-5 -2,-9 -6,-13 -4,-4 -10,-5 -17,-5z"/>
    <path class="fil0" d="M2713 538l0 -9c0,-4 5,-6 15,-6 5,0 7,7 7,20 0,1 0,2 0,3 4,-8 9,-15 16,-19 6,-5 13,-7 19,-7 9,0 13,3 13,10 0,3 -1,6 -3,10 -2,3 -3,5 -5,5 0,0 -1,0 -3,-1 -2,-1 -4,-1 -7,-1 -6,0 -12,3 -18,9 -6,6 -11,17 -15,32l-7 71c-1,4 -4,6 -11,6l-1 0c-7,0 -10,-2 -10,-6 8,-69 12,-107 12,-116z"/>
    <path class="fil0" d="M2789 645c0,-9 1,-14 4,-14 1,0 2,1 5,2 8,5 17,8 26,8 9,0 16,-2 21,-6 5,-4 8,-9 8,-16 0,-7 -2,-12 -6,-16 -4,-4 -9,-7 -14,-9 -6,-2 -11,-4 -17,-6 -6,-2 -10,-6 -14,-11 -4,-5 -6,-11 -6,-19 0,-12 5,-21 14,-29 9,-7 21,-11 34,-11 8,0 15,1 22,3 7,2 11,5 11,9 0,2 -1,4 -3,8 -2,3 -4,5 -6,5 0,0 -1,-1 -3,-2 -6,-3 -13,-5 -20,-5 -7,0 -13,2 -18,5 -4,3 -7,7 -7,12 0,5 2,9 6,12 4,3 9,5 14,7 6,2 11,4 17,7 6,3 10,7 14,12 4,5 6,12 6,20 0,14 -5,25 -14,34 -9,9 -21,13 -36,13 -7,0 -15,-1 -24,-4 -9,-3 -13,-6 -13,-11z"/>
    <path class="fil0" d="M2939 641l7 -1c1,0 2,1 2,3 0,2 0,5 -1,8 -1,3 -3,6 -6,7 -3,1 -7,2 -10,2 -16,0 -23,-8 -23,-25 0,-6 2,-26 5,-59 4,-33 5,-50 6,-50 1,-4 4,-6 11,-6l1 0c7,0 10,2 10,6 -7,64 -11,99 -11,103 0,4 1,7 2,9 1,2 2,3 3,3 1,0 3,0 4,0zm-4 -181l0 0 3 0c7,0 10,2 10,6l-2 16c0,4 -3,6 -10,6l-3 0c-7,0 -11,-2 -11,-6l2 -16c1,-4 4,-6 11,-6z"/>
    <path class="fil0" d="M3095 641l7 -1c1,0 2,1 2,3 0,2 0,5 -1,8 -1,3 -3,6 -6,7 -3,1 -7,2 -10,2 -16,0 -24,-9 -24,-26l0 -3c-10,19 -24,29 -42,29 -11,0 -22,-4 -32,-11 -5,-4 -10,-10 -13,-18 -3,-8 -5,-17 -5,-28 0,-25 6,-45 18,-61 12,-16 28,-23 48,-23 14,0 26,4 36,12l7 -65c1,-4 4,-6 11,-6l1 0c7,0 10,2 10,6 -11,104 -17,158 -17,162 0,4 0,7 1,8 1,2 1,3 3,3 2,1 4,1 6,1zm-24 -93l0 0c-8,-7 -18,-10 -28,-10 -10,0 -19,2 -25,5 -6,4 -11,8 -14,15 -6,12 -9,26 -9,41 0,16 3,26 8,32 5,6 13,9 23,9 7,0 15,-3 22,-10 7,-7 14,-18 19,-34l5 -49z"/>
    <path class="fil0" d="M3237 641l7 -1c1,0 2,1 2,3 0,2 0,5 -1,8 -1,3 -3,6 -6,7 -3,1 -7,2 -10,2 -16,0 -24,-9 -24,-26l0 -3c-10,19 -24,29 -41,29 -10,0 -19,-4 -28,-11 -5,-4 -9,-10 -11,-18 -3,-8 -4,-17 -4,-28 0,-25 6,-45 18,-61 12,-16 27,-23 47,-23 12,0 23,5 34,14 1,-3 2,-6 3,-7 2,-4 5,-6 9,-6l2 0c4,0 7,2 7,6 -7,65 -11,99 -11,103 0,4 0,6 1,8 1,2 1,3 2,3 2,1 4,1 6,1zm-50 -103l0 0c-29,0 -44,21 -44,63 0,26 9,39 26,39 7,0 14,-3 21,-10 7,-7 13,-18 18,-34l3 -35c0,-3 1,-8 2,-13 -9,-7 -18,-10 -27,-10z"/>
    <path class="fil0" d="M3388 641l7 -1c1,0 2,1 2,3 0,2 0,5 -1,8 -1,3 -3,6 -6,7 -3,1 -7,2 -10,2 -16,0 -24,-9 -24,-26l0 -3c-10,19 -24,29 -42,29 -11,0 -22,-4 -32,-11 -5,-4 -10,-10 -13,-18 -3,-8 -5,-17 -5,-28 0,-25 6,-45 18,-61 12,-16 28,-23 48,-23 14,0 26,4 36,12l7 -65c1,-4 4,-6 11,-6l1 0c7,0 10,2 10,6 -11,104 -17,158 -17,162 0,4 0,7 1,8 1,2 1,3 3,3 2,1 4,1 6,1zm-24 -93l0 0c-8,-7 -18,-10 -28,-10 -10,0 -19,2 -25,5 -6,4 -11,8 -14,15 -6,12 -9,26 -9,41 0,16 3,26 8,32 5,6 13,9 23,9 7,0 15,-3 22,-10 7,-7 14,-18 19,-34l5 -49z"/>
    <path class="fil0" d="M2098 765l1 0c7,0 10,2 10,6l-3 28 22 0c3,0 4,2 4,5 0,4 -1,7 -4,10 -2,3 -5,4 -8,4l-17 0c-6,54 -9,83 -9,87 0,10 4,15 13,15 3,0 6,0 8,-1 2,-1 4,-1 4,-1 1,0 2,1 2,3 0,2 0,5 -1,9 -1,6 -7,9 -18,9 -20,0 -30,-10 -30,-29l9 -92 -13 0c-3,0 -4,-2 -4,-7 0,-8 2,-12 7,-12l13 0 3 -28c1,-4 4,-6 11,-6z"/>
    <path class="fil0" d="M2249 909c4,-2 6,-3 6,-3 1,0 2,1 2,4 0,3 0,6 -1,11 -1,5 -7,10 -16,13 -10,3 -19,4 -27,4 -40,0 -60,-18 -60,-55 0,-26 6,-46 18,-62 12,-16 30,-24 55,-24 15,0 26,4 33,11 7,7 11,16 11,24 0,9 -2,16 -6,23 -4,7 -9,12 -16,15 -14,7 -30,10 -49,10 -9,0 -16,-1 -23,-2l0 3c0,14 3,24 10,29 7,6 16,9 29,9 12,0 24,-3 35,-10zm-26 -94l0 0c-26,0 -42,15 -46,45l19 0c15,0 27,-2 36,-6 4,-2 7,-4 11,-8 3,-4 5,-8 5,-13 0,-5 -2,-9 -6,-13 -4,-4 -10,-5 -17,-5z"/>
    <path class="fil0" d="M2390 911c1,0 2,1 2,4 0,3 0,6 -1,11 -1,4 -5,8 -14,9 -8,2 -16,3 -24,3 -19,0 -33,-4 -43,-13 -9,-9 -14,-22 -14,-40 0,-18 2,-33 7,-45 4,-12 12,-23 23,-31 11,-8 24,-12 40,-12 11,0 20,1 27,4 7,3 10,6 10,9 0,2 -1,5 -4,8 -2,3 -5,5 -7,5 0,0 -1,-1 -3,-2 -6,-4 -15,-6 -28,-6 -12,0 -22,5 -30,16 -8,10 -12,27 -12,49 0,13 3,23 9,29 6,6 15,9 27,9 11,0 21,-2 30,-6 3,-1 5,-2 5,-2z"/>
    <path class="fil0" d="M2535 831l-8 77c0,5 1,8 3,10 2,1 4,1 6,1l7 -1c1,0 2,1 2,3 0,2 0,5 -1,8 -1,3 -3,6 -6,7 -3,1 -7,2 -10,2 -16,0 -24,-9 -24,-26 0,-3 1,-16 4,-39 2,-23 4,-35 4,-37 0,-14 -7,-20 -20,-20 -7,0 -15,3 -23,10 -8,7 -14,17 -19,33l-8 73c-1,4 -4,6 -11,6l-1 0c-7,0 -10,-2 -10,-6 8,-69 12,-107 12,-116l0 -9c0,-4 5,-6 15,-6 5,0 7,7 7,20 0,1 0,2 0,3 13,-18 29,-27 47,-27 23,0 35,11 35,34z"/>
    <path class="fil0" d="M2570 881c0,-23 5,-43 16,-58 5,-8 13,-14 22,-19 9,-5 20,-7 32,-7 17,0 30,5 39,15 9,10 14,24 14,43 0,27 -6,48 -18,62 -12,15 -29,22 -50,22 -18,0 -32,-5 -41,-15 -9,-10 -14,-24 -14,-42zm56 38l0 0c14,0 25,-5 32,-16 8,-11 11,-27 11,-48 0,-13 -3,-23 -8,-29 -5,-6 -14,-9 -25,-9 -14,0 -25,6 -33,17 -8,11 -11,27 -11,48 0,26 11,39 33,39z"/>
    <path class="fil0" d="M2760 919l7 -1c1,0 2,1 2,3 0,2 0,5 -1,8 -1,3 -3,6 -6,7 -3,1 -7,2 -10,2 -16,0 -24,-9 -24,-26 0,-8 4,-51 13,-129l4 -40c1,-4 4,-6 11,-6l1 0c7,0 10,2 10,6 -11,104 -17,158 -17,162 0,4 0,7 1,8 1,2 1,3 3,3 2,1 4,1 6,1z"/>
    <path class="fil0" d="M2799 881c0,-23 5,-43 16,-58 5,-8 13,-14 22,-19 9,-5 20,-7 32,-7 17,0 30,5 39,15 9,10 14,24 14,43 0,27 -6,48 -18,62 -12,15 -29,22 -50,22 -18,0 -32,-5 -41,-15 -9,-10 -14,-24 -14,-42zm56 38l0 0c14,0 25,-5 32,-16 8,-11 11,-27 11,-48 0,-13 -3,-23 -8,-29 -5,-6 -14,-9 -25,-9 -14,0 -25,6 -33,17 -8,11 -11,27 -11,48 0,26 11,39 33,39zm35 -181l0 0c8,0 12,1 12,3 0,2 -9,12 -28,31 -3,3 -7,4 -12,4 -5,0 -8,-1 -8,-2 0,-2 6,-12 18,-30 3,-5 9,-7 17,-7z"/>
    <path class="fil0" d="M2993 992c-13,0 -23,-2 -32,-6 -9,-4 -13,-8 -13,-13 0,-10 1,-15 4,-15 0,0 2,1 5,4 3,2 8,5 15,7 6,2 14,4 22,4 13,0 23,-5 30,-15 7,-10 11,-27 13,-50 -10,19 -24,28 -42,28 -10,0 -20,-4 -29,-11 -5,-4 -9,-10 -12,-17 -3,-8 -4,-17 -4,-27 0,-25 6,-45 18,-61 12,-16 28,-23 48,-23 13,0 24,5 35,14 1,-3 2,-6 3,-7 2,-4 5,-6 9,-6l2 0c4,0 7,2 7,6l-11 107c-3,31 -10,52 -20,64 -10,12 -25,18 -44,18zm23 -176l0 0c-30,0 -45,21 -45,63 0,25 9,38 27,38 7,0 15,-4 22,-11 7,-7 14,-19 19,-35l3 -32c0,-3 1,-8 2,-13 -9,-7 -19,-10 -29,-10z"/>
    <path class="fil0" d="M3129 919l7 -1c1,0 2,1 2,3 0,2 0,5 -1,8 -1,3 -3,6 -6,7 -3,1 -7,2 -10,2 -16,0 -23,-8 -23,-25 0,-6 2,-26 5,-59 4,-33 5,-50 6,-50 1,-4 4,-6 11,-6l1 0c7,0 10,2 10,6 -7,64 -11,99 -11,103 0,4 1,7 2,9 1,2 2,3 3,3 1,0 3,0 4,0zm-4 -181l0 0 3 0c7,0 10,2 10,6l-2 16c0,4 -3,6 -10,6l-3 0c-7,0 -11,-2 -11,-6l2 -16c1,-4 4,-6 11,-6z"/>
    <path class="fil0" d="M3257 911c1,0 2,1 2,4 0,3 0,6 -1,11 -1,4 -6,8 -14,9 -8,2 -16,3 -24,3 -19,0 -33,-4 -43,-13 -9,-9 -14,-22 -14,-40 0,-18 2,-33 7,-45 4,-12 12,-23 23,-31 11,-8 24,-12 40,-12 11,0 20,1 27,4 7,3 10,6 10,9 0,2 -1,5 -4,8 -2,3 -5,5 -7,5 0,0 -1,-1 -3,-2 -6,-4 -15,-6 -28,-6 -12,0 -22,5 -30,16 -8,10 -12,27 -12,49 0,13 3,23 9,29 6,6 15,9 27,9 11,0 21,-2 30,-6 3,-1 5,-2 5,-2z"/>
    <path class="fil0" d="M3407 919l7 -1c1,0 2,1 2,3 0,2 0,5 -1,8 -1,3 -3,6 -6,7 -3,1 -7,2 -10,2 -16,0 -24,-9 -24,-26l0 -3c-10,19 -24,29 -41,29 -10,0 -19,-4 -28,-11 -5,-4 -9,-10 -11,-18 -3,-8 -4,-17 -4,-28 0,-25 6,-45 18,-61 12,-16 27,-23 47,-23 12,0 23,5 34,14 1,-3 2,-6 3,-7 2,-4 5,-6 9,-6l2 0c4,0 7,2 7,6 -7,65 -11,99 -11,103 0,4 0,6 1,8 1,2 1,3 2,3 2,1 4,1 6,1zm-50 -103l0 0c-29,0 -44,21 -44,63 0,26 9,39 26,39 7,0 14,-3 21,-10 7,-7 13,-18 18,-34l3 -35c0,-3 1,-8 2,-13 -9,-7 -18,-10 -27,-10z"/>
   </g>
  </g>
 </g>
</svg>
